<svg width="111" height="111" viewBox="0 0 111 111" fill="none" xmlns="http://www.w3.org/2000/svg">
<rect width="111" height="111" fill="#767C32"/>
<g clip-path="url(#clip0_188_2231)">
<path d="M79.625 76.25C78.0675 76.25 76.5449 76.7119 75.2499 77.5772C73.9549 78.4425 72.9455 79.6724 72.3495 81.1114C71.7534 82.5503 71.5975 84.1337 71.9013 85.6613C72.2052 87.1889 72.9552 88.5921 74.0565 89.6935C75.1579 90.7948 76.5611 91.5448 78.0887 91.8487C79.6163 92.1525 81.1997 91.9966 82.6386 91.4006C84.0776 90.8045 85.3075 89.7952 86.1728 88.5001C87.0381 87.2051 87.5 85.6825 87.5 84.125C87.5007 83.0906 87.2976 82.0663 86.9021 81.1105C86.5066 80.1547 85.9265 79.2863 85.1951 78.5549C84.4637 77.8235 83.5953 77.2434 82.6395 76.8479C81.6837 76.4525 80.6594 76.2493 79.625 76.25ZM79.625 86.9375C79.0687 86.9375 78.525 86.7726 78.0625 86.4635C77.5999 86.1545 77.2395 85.7152 77.0266 85.2013C76.8137 84.6874 76.758 84.1219 76.8665 83.5763C76.9751 83.0307 77.2429 82.5296 77.6363 82.1363C78.0296 81.7429 78.5307 81.4751 79.0763 81.3665C79.6219 81.258 80.1874 81.3137 80.7013 81.5266C81.2152 81.7395 81.6545 82.0999 81.9635 82.5625C82.2726 83.025 82.4375 83.5687 82.4375 84.125C82.4375 84.8709 82.1412 85.5863 81.6137 86.1137C81.0863 86.6412 80.3709 86.9375 79.625 86.9375Z" fill="white"/>
<path d="M63.875 76.2501C62.3175 76.2501 60.7949 76.712 59.4999 77.5773C58.2048 78.4426 57.1955 79.6725 56.5995 81.1115C56.0034 82.5505 55.8475 84.1339 56.1513 85.6615C56.4552 87.1891 57.2052 88.5923 58.3065 89.6936C59.4079 90.7949 60.8111 91.5449 62.3387 91.8488C63.8663 92.1527 65.4497 91.9967 66.8886 91.4007C68.3276 90.8046 69.5575 89.7953 70.4228 88.5002C71.2881 87.2052 71.75 85.6827 71.75 84.1251C71.7507 83.0908 71.5476 82.0664 71.1521 81.1106C70.7566 80.1548 70.1765 79.2864 69.4451 78.555C68.7137 77.8236 67.8453 77.2436 66.8895 76.8481C65.9337 76.4526 64.9094 76.2494 63.875 76.2501ZM63.875 86.9376C63.3187 86.9376 62.775 86.7727 62.3125 86.4636C61.8499 86.1546 61.4895 85.7153 61.2766 85.2014C61.0637 84.6875 61.008 84.122 61.1165 83.5764C61.2251 83.0309 61.4929 82.5297 61.8863 82.1364C62.2796 81.743 62.7807 81.4752 63.3263 81.3667C63.8719 81.2581 64.4374 81.3138 64.9513 81.5267C65.4652 81.7396 65.9045 82.1001 66.2135 82.5626C66.5225 83.0251 66.6875 83.5689 66.6875 84.1251C66.6875 84.871 66.3912 85.5864 65.8637 86.1139C65.3363 86.6413 64.6209 86.9376 63.875 86.9376ZM33.5 76.2501C31.9425 76.2501 30.4199 76.712 29.1249 77.5773C27.8299 78.4426 26.8205 79.6725 26.2245 81.1115C25.6284 82.5505 25.4725 84.1339 25.7763 85.6615C26.0802 87.1891 26.8302 88.5923 27.9315 89.6936C29.0329 90.7949 30.4361 91.5449 31.9637 91.8488C33.4913 92.1527 35.0747 91.9967 36.5136 91.4007C37.9526 90.8046 39.1825 89.7953 40.0478 88.5002C40.9131 87.2052 41.375 85.6827 41.375 84.1251C41.3757 83.0908 41.1726 82.0664 40.7771 81.1106C40.3816 80.1548 39.8015 79.2864 39.0701 78.555C38.3387 77.8236 37.4703 77.2436 36.5145 76.8481C35.5587 76.4526 34.5344 76.2494 33.5 76.2501ZM33.5 86.9376C32.9437 86.9376 32.4 86.7727 31.9375 86.4636C31.4749 86.1546 31.1145 85.7153 30.9016 85.2014C30.6887 84.6875 30.633 84.122 30.7415 83.5764C30.8501 83.0309 31.1179 82.5297 31.5113 82.1364C31.9046 81.743 32.4057 81.4752 32.9513 81.3667C33.4969 81.2581 34.0624 81.3138 34.5763 81.5267C35.0902 81.7396 35.5295 82.1001 35.8385 82.5626C36.1476 83.0251 36.3125 83.5689 36.3125 84.1251C36.3125 84.871 36.0162 85.5864 35.4887 86.1139C34.9613 86.6413 34.2459 86.9376 33.5 86.9376ZM45.11 43.1132L46.3858 39.9869L56.81 44.2427L55.5331 47.368L45.11 43.1132ZM60.5 61.6262H66.3455L60.5 58.0409V61.6262ZM54.875 38.5131C54.7333 38.5131 48.08 35.8345 48.08 35.8345L47.2318 37.9135L57.6538 42.1626L60.2052 35.9099L49.7855 31.6619L48.9305 33.7544L55.2991 36.3486C55.5392 36.448 55.7375 36.6273 55.8603 36.8562C55.9831 37.0851 56.0229 37.3495 55.973 37.6045C55.923 37.8594 55.7864 38.0892 55.5862 38.2548C55.3861 38.4205 55.1348 38.5117 54.875 38.5131ZM57.6178 48.2196L82.6085 58.4155L89.8333 40.7001L64.8369 30.5076L57.6178 48.2196ZM77.2917 51.3876C77.2073 51.5946 77.0631 51.7716 76.8775 51.8963C76.692 52.0209 76.4735 52.0874 76.25 52.0874C76.1082 52.0874 63.056 46.7942 63.056 46.7942C62.9158 46.7409 62.7878 46.66 62.6793 46.5564C62.5709 46.4527 62.4842 46.3285 62.4245 46.1909C62.3648 46.0533 62.3332 45.9052 62.3315 45.7552C62.3299 45.6052 62.3583 45.4564 62.415 45.3176C62.4717 45.1787 62.5556 45.0526 62.6618 44.9467C62.7679 44.8407 62.8942 44.757 63.0332 44.7006C63.1722 44.6442 63.321 44.6161 63.471 44.618C63.621 44.62 63.769 44.6519 63.9065 44.7119L76.6752 49.9251C76.9505 50.0379 77.1698 50.2551 77.2854 50.5291C77.4009 50.8032 77.4032 51.1119 77.2917 51.3876ZM80.1436 53.6759C79.9211 53.6759 79.7036 53.6099 79.5186 53.4863C79.3336 53.3627 79.1894 53.187 79.1043 52.9814C79.0191 52.7758 78.9968 52.5496 79.0402 52.3314C79.0836 52.1132 79.1908 51.9127 79.3481 51.7554C79.5055 51.598 79.7059 51.4909 79.9241 51.4475C80.1424 51.4041 80.3686 51.4264 80.5741 51.5115C80.7797 51.5967 80.9554 51.7409 81.079 51.9259C81.2026 52.1109 81.2686 52.3284 81.2686 52.5509C81.2683 52.849 81.1497 53.1349 80.9387 53.3456C80.7278 53.5564 80.4418 53.6759 80.1436 53.6759ZM65.837 36.9876C65.9498 36.7124 66.1669 36.493 66.441 36.3775C66.7151 36.262 67.0237 36.2597 67.2995 36.3711L83.9607 43.1661C84.2016 43.2651 84.4007 43.4445 84.524 43.6738C84.6474 43.903 84.6874 44.168 84.6372 44.4235C84.587 44.679 84.4498 44.9092 84.2489 45.0748C84.048 45.2404 83.7959 45.3312 83.5355 45.3317C83.3949 45.3317 66.4501 38.4535 66.4501 38.4535C66.1747 38.3401 65.9555 38.1221 65.8405 37.8473C65.7256 37.5725 65.7243 37.2634 65.837 36.9876ZM65.6052 40.5449L82.2665 47.3399C82.5073 47.4388 82.7064 47.6182 82.8298 47.8475C82.9531 48.0768 82.9931 48.3418 82.943 48.5973C82.8928 48.8528 82.7556 49.0829 82.5547 49.2486C82.3537 49.4142 82.1016 49.505 81.8413 49.5055C81.6995 49.5055 64.7559 42.6273 64.7559 42.6273C64.6147 42.5747 64.4855 42.4943 64.376 42.3908C64.2665 42.2874 64.1789 42.163 64.1184 42.025C64.0578 41.8871 64.0256 41.7384 64.0237 41.5877C64.0217 41.4371 64.05 41.2876 64.1069 41.1481C64.1638 41.0086 64.2481 40.882 64.3549 40.7757C64.4616 40.6694 64.5887 40.5857 64.7284 40.5294C64.8682 40.4732 65.0178 40.4455 65.1684 40.4482C65.319 40.4508 65.4676 40.4837 65.6052 40.5449ZM50.6529 29.5784L51.9275 26.4565L62.345 30.709L61.0704 33.8309L50.6529 29.5784ZM58.25 66.1251V68.3751H85.25V61.6251L84.1081 60.6419L81.7625 65.4906C81.6704 65.6808 81.5265 65.8412 81.3475 65.9534C81.1684 66.0656 80.9613 66.1251 80.75 66.1251H73.6816L70.0141 63.8751H59.7496L58.25 66.1251ZM39.9013 40.9937L43.022 42.2672L46.4173 33.9569V33.9445L46.4251 33.9321L49.8249 25.6071L46.6963 24.3325C46.6963 24.3325 41.4875 22.2062 40.6438 24.2875C39.9013 26.11 44.9975 28.495 44.9975 28.495C44.9975 28.495 39.6875 26.6275 38.945 28.4612C38.2025 30.295 43.2987 32.6687 43.2987 32.6687C43.2987 32.6687 37.9888 30.8012 37.2463 32.6237C36.5038 34.4462 41.6 36.8312 41.6 36.8312C41.6 36.8312 36.29 34.9637 35.5475 36.7862C34.6925 38.8787 39.9013 40.9937 39.9013 40.9937Z" fill="white"/>
<path d="M55.8496 52.5484L74.3176 63.876H80.045L81.6909 60.4718L56.7643 50.3018L55.8496 52.5484ZM83.2175 74.001L88.2429 76.0114L90.9778 72.3653L87.5004 70.626H56.0004L53.5693 72.2471L55.4188 75.9461L60.2833 74.001H83.2175ZM34.6254 59.376H24.5004L20.9004 63.876H34.6254V59.376ZM71.7504 77.7765C72.2038 77.2146 72.7159 76.7028 73.2781 76.2499H70.2226C70.7849 76.7028 71.297 77.2146 71.7504 77.7765ZM89.5254 78.0499C88.9629 78.9758 87.8874 78.2918 87.8874 78.2918C88.8761 79.6832 89.4944 81.3035 89.684 82.9999H92.0004V74.7503L89.5254 78.0499Z" fill="white"/>
<path d="M53.8681 77.879L51.3673 72.875H44.75V57.125L41.375 53.75H29L26.3 57.125H35.75C36.0484 57.125 36.3345 57.2435 36.5455 57.4545C36.7565 57.6655 36.875 57.9516 36.875 58.25V65C36.875 65.2984 36.7565 65.5845 36.5455 65.7955C36.3345 66.0065 36.0484 66.125 35.75 66.125H20V68.375H29C29.2984 68.375 29.5845 68.4935 29.7955 68.7045C30.0065 68.9155 30.125 69.2016 30.125 69.5C30.125 69.7984 30.0065 70.0845 29.7955 70.2955C29.5845 70.5065 29.2984 70.625 29 70.625H20V83H23.4414C23.7254 80.5314 24.9074 78.2534 26.7622 76.5998C28.617 74.9462 31.0151 74.0324 33.5 74.0324C35.9849 74.0324 38.383 74.9462 40.2378 76.5998C42.0926 78.2534 43.2746 80.5314 43.5586 83H53.8164C54.0051 81.3028 54.6247 79.6821 55.6164 78.2919C55.3748 78.3796 55.1269 78.4491 54.875 78.5C54.6661 78.5002 54.4612 78.4422 54.2833 78.3325C54.1055 78.2228 53.9617 78.0658 53.8681 77.879Z" fill="white"/>
</g>
<defs>
<clipPath id="clip0_188_2231">
<rect width="72" height="72" fill="white" transform="translate(20 20)"/>
</clipPath>
</defs>
</svg>
